HIERARCHY
ROOT Hips
{
	OFFSET 0.000000 0.000000 0.000000
	CHANNELS 6 Xposition Yposition Zposition Zrotation Yrotation Xrotation 
	JOINT LowerBack
	{
		OFFSET 0.000000 0.000000 0.000000
		CHANNELS 3 Zrotation Yrotation Xrotation
		JOINT Spine
		{
			OFFSET 0.028270 2.035590 -0.193380
			CHANNELS 3 Zrotation Yrotation Xrotation
			JOINT Spine1
			{
				OFFSET 0.056720 2.048850 -0.042750
				CHANNELS 3 Zrotation Yrotation Xrotation
				JOINT Neck
				{
					OFFSET 0.000000 0.000000 0.000000
					CHANNELS 3 Zrotation Yrotation Xrotation
					JOINT Neck1
					{
						OFFSET -0.054170 1.746240 0.172020
						CHANNELS 3 Zrotation Yrotation Xrotation
						JOINT Head
						{
							OFFSET 0.104070 1.761360 -0.123970
							CHANNELS 3 Zrotation Yrotation Xrotation
							End Site
							{
								OFFSET 0.000000 0.000000 0.000000
							}
						}
					}
				}
				JOINT LeftShoulder
				{
					OFFSET 0.000000 0.000000 0.000000
					CHANNELS 3 Zrotation Yrotation Xrotation
					JOINT LeftArm
					{
						OFFSET 3.362410 1.200890 -0.311210
						CHANNELS 3 Zrotation Yrotation Xrotation
						JOINT LeftForeArm
						{
							OFFSET 4.983000 -0.000000 -0.000000
							CHANNELS 3 Zrotation Yrotation Xrotation
							JOINT LeftHand
							{
								OFFSET 3.483560 -0.000000 -0.000000
								CHANNELS 3 Zrotation Yrotation Xrotation
								JOINT LeftFingerBase
								{
									OFFSET 0.000000 0.000000 0.000000
									CHANNELS 3 Zrotation Yrotation Xrotation
									JOINT LeftHandIndex1
									{
										OFFSET 0.715260 -0.000000 -0.000000
										CHANNELS 3 Zrotation Yrotation Xrotation
										End Site
										{
											OFFSET 0.000000 0.000000 0.000000
										}
									}
								}
								JOINT LThumb
								{
									OFFSET 0.000000 0.000000 0.000000
									CHANNELS 3 Zrotation Yrotation Xrotation
									End Site
									{
										OFFSET 0.000000 0.000000 0.000000
									}
								}
							}
						}
					}
				}
				JOINT RightShoulder
				{
					OFFSET 0.000000 0.000000 0.000000
					CHANNELS 3 Zrotation Yrotation Xrotation
					JOINT RightArm
					{
						OFFSET -3.136600 1.374050 -0.404650
						CHANNELS 3 Zrotation Yrotation Xrotation
						JOINT RightForeArm
						{
							OFFSET -5.241900 -0.000000 -0.000000
							CHANNELS 3 Zrotation Yrotation Xrotation
							JOINT RightHand
							{
								OFFSET -3.444170 -0.000000 -0.000000
								CHANNELS 3 Zrotation Yrotation Xrotation
								JOINT RightFingerBase
								{
									OFFSET 0.000000 0.000000 0.000000
									CHANNELS 3 Zrotation Yrotation Xrotation
									JOINT RightHandIndex1
									{
										OFFSET -0.622530 -0.000000 -0.000000
										CHANNELS 3 Zrotation Yrotation Xrotation
										End Site
										{
											OFFSET 0.000000 0.000000 0.000000
										}
									}
								}
								JOINT RThumb
								{
									OFFSET 0.000000 0.000000 0.000000
									CHANNELS 3 Zrotation Yrotation Xrotation
									End Site
									{
										OFFSET 0.000000 0.000000 0.000000
									}
								}
							}
						}
					}
				}
			}
		}
	}
}
}
MOTION
Frames: 14
Frame Time: 0.008333
-1.683207 17.881001 0.072363 -169.774647 80.058008 -145.621375 -3.420975 0.172709 -3.674877 -0.886375 0.371723 -3.368963 -2.535226 0.278453 0.607774 0.779555 -5.930915 -8.453115 0.010758 0.022485 -0.294517 0.000000 0.000000 0.000000 12.843933 8.589479 5.095171 19.241484 -37.692741 -21.256790 -0.550159 -58.970368 0.087250 -10.918902 3.187940 -0.271909 0.216902 0.391511 -0.000000 0.000000 0.000000 0.000000 0.000000 0.000000 0.000000 -6.227765 0.713664 0.348178 -1.402804 57.093229 -12.295774 -0.944455 49.764530 -0.026293 -2.915768 4.980732 -0.137529 -0.028513 -0.469001 0.000000 0.000000 0.000000 0.000000 0.000000 0.000000 0.000000 
-1.438791 17.885445 0.022488 -168.847668 79.876926 -144.753161 -3.421779 0.183661 -3.722509 -0.847038 0.384949 -3.347638 -2.376359 0.284327 0.759788 0.666829 -6.218973 -8.553814 0.105021 0.031735 -0.321597 0.000000 0.000000 0.000000 12.392734 9.058082 5.050240 19.566677 -37.930637 -22.532147 -0.539701 -58.408132 0.089321 -11.096740 3.521357 -0.309902 0.224289 0.387246 -0.000000 0.000000 0.000000 0.000000 0.000000 0.000000 0.000000 -6.654148 0.393347 0.496135 -3.229639 57.360270 -11.152333 -0.854779 50.014068 -0.018370 -1.931780 4.573108 -0.082917 -0.041575 -0.447132 -0.000000 0.000000 0.000000 0.000000 0.000000 0.000000 0.000000 
-1.195974 17.876075 -0.029512 -167.719120 79.677476 -143.768770 -3.356155 0.190688 -3.711649 -0.791191 0.390293 -3.317510 -2.213578 0.282815 0.895468 0.535066 -6.499773 -8.643526 0.198674 0.040771 -0.345870 0.000000 0.000000 0.000000 11.889385 9.514228 4.997124 19.906527 -38.152419 -23.944388 -0.525114 -57.796993 0.090217 -11.083885 3.819079 -0.339302 0.227411 0.385335 -0.000000 0.000000 0.000000 0.000000 0.000000 0.000000 0.000000 -7.105110 0.081853 0.635556 -5.134006 57.606439 -10.114391 -0.774879 50.336716 -0.011656 -1.043569 4.183391 -0.039910 -0.053426 -0.426172 0.000000 0.000000 0.000000 0.000000 0.000000 0.000000 0.000000 
-0.955210 17.852583 -0.083841 -166.386981 79.458899 -142.671411 -3.221863 0.197348 -3.637728 -0.719241 0.391316 -3.278150 -2.049033 0.277662 1.013182 0.382550 -6.767190 -8.720735 0.290014 0.049420 -0.366968 0.000000 0.000000 0.000000 11.339141 9.943779 4.935999 20.266361 -38.352602 -25.492949 -0.505851 -57.147354 0.090069 -10.905394 4.073324 -0.358608 0.226903 0.385808 -0.000000 0.000000 0.000000 0.000000 0.000000 0.000000 0.000000 -7.576765 -0.213198 0.768194 -7.104981 57.808922 -9.214382 -0.704331 50.726582 -0.005975 -0.234470 3.830196 -0.006304 -0.064477 -0.406597 0.000000 0.000000 0.000000 0.000000 0.000000 0.000000 0.000000 
-0.716516 17.814785 -0.140029 -164.976078 79.231407 -141.574349 -3.046853 0.203627 -3.511071 -0.638391 0.390017 -3.231979 -1.885480 0.270828 1.112368 0.216439 -7.014978 -8.783119 0.376961 0.057464 -0.384152 0.000000 0.000000 0.000000 10.758274 10.330661 4.866559 20.647885 -38.526211 -27.178124 -0.481442 -56.469443 0.089078 -10.598558 4.286805 -0.368619 0.223674 0.388370 -0.000000 0.000000 0.000000 0.000000 0.000000 0.000000 0.000000 -8.053587 -0.486435 0.895697 -9.120929 57.951214 -8.475931 -0.642447 51.167745 -0.001154 0.512895 3.530934 0.020100 -0.075129 -0.388892 0.000000 0.000000 0.000000 0.000000 0.000000 0.000000 0.000000 
-0.479875 17.762603 -0.197718 -163.564604 79.002654 -140.538063 -2.852232 0.209432 -3.348850 -0.554434 0.387732 -3.182632 -1.725914 0.263628 1.193029 0.045560 -7.237336 -8.828306 0.457819 0.064706 -0.396567 0.000000 0.000000 0.000000 10.163509 10.662289 4.788082 21.046752 -38.674061 -29.005155 -0.451267 -55.769202 0.087480 -10.204483 4.471434 -0.371435 0.218733 0.392521 -0.000000 0.000000 0.000000 0.000000 0.000000 0.000000 0.000000 -8.521848 -0.732835 1.018571 -11.148796 58.022582 -7.916542 -0.588373 51.635765 0.002997 1.217740 3.294789 0.041704 -0.085749 -0.373373 0.000000 0.000000 0.000000 0.000000 0.000000 0.000000 0.000000 
-0.245215 17.696025 -0.256880 -162.115952 78.768945 -139.510610 -2.633582 0.216458 -3.166798 -0.467429 0.385745 -3.133474 -1.573282 0.257406 1.255445 -0.123505 -7.429940 -8.854196 0.531597 0.070998 -0.403386 0.000000 0.000000 0.000000 9.566988 10.932436 4.699328 21.452654 -38.803909 -30.985759 -0.414321 -55.047727 0.085517 -9.760930 4.644254 -0.369953 0.213041 0.397683 -0.000000 0.000000 0.000000 0.000000 0.000000 0.000000 0.000000 -8.975616 -0.947751 1.136138 -13.150682 58.019215 -7.549228 -0.541009 52.098259 0.006676 1.900644 3.121798 0.060709 -0.096639 -0.360104 0.000000 0.000000 0.000000 0.000000 0.000000 0.000000 0.000000 
-0.012357 17.615569 -0.316779 -160.753372 78.544992 -138.598936 -2.425530 0.222386 -2.978670 -0.385924 0.383862 -3.087161 -1.430222 0.251917 1.300060 -0.275324 -7.589865 -8.858757 0.597102 0.076199 -0.403877 0.000000 0.000000 0.000000 8.992602 11.136572 4.597683 21.848608 -38.929943 -33.137681 -0.369224 -54.298556 0.083369 -9.295035 4.821623 -0.366674 0.207381 0.403301 -0.000000 0.000000 0.000000 0.000000 0.000000 0.000000 0.000000 -9.396578 -1.129045 1.247529 -15.088593 57.946434 -7.381858 -0.499222 52.517655 0.010055 2.580021 3.001643 0.078613 -0.108067 -0.349005 0.000000 0.000000 0.000000 0.000000 0.000000 0.000000 0.000000 
0.219489 17.521593 -0.376857 -159.594168 78.341823 -137.876253 -2.259202 0.223451 -2.827422 -0.316834 0.379702 -3.052505 -1.296787 0.244350 1.328194 -0.399585 -7.714230 -8.838038 0.654710 0.080229 -0.396360 0.000000 0.000000 0.000000 8.461396 11.270405 4.480246 22.208010 -39.070592 -35.473504 -0.313749 -53.514410 0.081151 -8.823219 5.022418 -0.363595 0.202249 0.408739 0.000000 0.000000 0.000000 0.000000 0.000000 0.000000 0.000000 -9.779072 -1.276436 1.349964 -16.912867 57.820125 -7.397595 -0.461958 52.849708 0.013214 3.259971 2.932870 0.096622 -0.119933 -0.340032 0.000000 0.000000 0.000000 0.000000 0.000000 0.000000 0.000000 
0.450495 17.414963 -0.437162 -158.602309 78.154269 -137.299875 -2.127189 0.219448 -2.719029 -0.258224 0.372285 -3.031061 -1.172698 0.233717 1.339203 -0.493290 -7.801657 -8.789799 0.705531 0.083111 -0.380019 0.000000 0.000000 0.000000 7.985636 11.336484 4.343167 22.497037 -39.251049 -38.015119 -0.244602 -52.686307 0.078883 -8.346525 5.250093 -0.360816 0.197907 0.413852 -0.000000 0.000000 0.000000 0.000000 0.000000 0.000000 0.000000 -10.129750 -1.387801 1.440943 -18.592090 57.657473 -7.599091 -0.427836 53.052876 0.016274 3.950986 2.896615 0.115232 -0.132235 -0.332750 0.000000 0.000000 0.000000 0.000000 0.000000 0.000000 0.000000 
0.680603 17.297218 -0.497407 -157.803865 77.993424 -136.902780 -2.042007 0.210298 -2.643857 -0.212525 0.362358 -3.021042 -1.057518 0.220865 1.331437 -0.550907 -7.852264 -8.712475 0.750554 0.084897 -0.354504 0.000000 0.000000 0.000000 7.582177 11.339160 4.181610 22.677626 -39.499072 -40.780988 -0.157894 -51.804774 0.076431 -7.847932 5.484840 -0.355639 0.194248 0.419039 -0.000000 0.000000 0.000000 0.000000 0.000000 0.000000 0.000000 -10.449359 -1.461355 1.518485 -20.098810 57.480836 -7.986895 -0.395671 53.093363 0.019339 4.659886 2.861993 0.133844 -0.144954 -0.326545 0.000000 0.000000 0.000000 0.000000 0.000000 0.000000 0.000000 
0.910117 17.169851 -0.557838 -157.173830 77.855888 -136.647782 -1.994811 0.196130 -2.613306 -0.176636 0.349319 -3.025246 -0.948088 0.205025 1.303268 -0.578716 -7.864896 -8.603009 0.792454 0.085720 -0.318786 0.000000 0.000000 0.000000 7.260979 11.277819 3.991239 22.702154 -39.835913 -43.773178 -0.048757 -50.874575 0.073622 -7.308508 5.700789 -0.345363 0.191083 0.424843 -0.000000 0.000000 0.000000 0.000000 0.000000 0.000000 0.000000 -10.758377 -1.495329 1.580133 -21.409159 57.314863 -8.551641 -0.364229 52.938365 0.022413 5.378048 2.814533 0.151659 -0.157715 -0.320984 0.000000 0.000000 0.000000 0.000000 0.000000 0.000000 0.000000 
1.139003 17.034867 -0.618927 -156.651780 77.737565 -136.476514 -1.968068 0.179291 -2.623956 -0.145795 0.334481 -3.043337 -0.841525 0.187546 1.251896 -0.586727 -7.839095 -8.459115 0.833836 0.085733 -0.272328 0.000000 0.000000 0.000000 7.028593 11.150580 3.767927 22.521519 -40.275712 -46.978522 0.087685 -49.912042 0.070199 -6.704221 5.852093 -0.325989 0.188098 0.432326 -0.000000 0.000000 0.000000 0.000000 0.000000 0.000000 0.000000 -11.079421 -1.487076 1.624192 -22.504483 57.184306 -9.285398 -0.332385 52.566187 0.025476 6.092980 2.737300 0.167176 -0.170116 -0.315597 0.000000 0.000000 0.000000 0.000000 0.000000 0.000000 0.000000 
1.367077 16.894753 -0.681486 -156.129793 77.628567 -136.282343 -1.929363 0.164286 -2.672109 -0.112411 0.320321 -3.074762 -0.735490 0.171038 1.174362 -0.589597 -7.775705 -8.279686 0.877032 0.085093 -0.215011 0.000000 0.000000 0.000000 6.884860 10.952594 3.508629 22.087967 -40.819548 -50.358889 0.255376 -48.949994 0.065866 -6.014355 5.883296 -0.294221 0.184967 0.442849 -0.000000 0.000000 0.000000 0.000000 0.000000 0.000000 0.000000 -11.437246 -1.434522 1.650374 -23.382108 57.112012 -10.183734 -0.299128 51.964320 0.028452 6.782065 2.620226 0.178396 -0.181581 -0.310039 0.000000 0.000000 0.000000 0.000000 0.000000 0.000000 0.000000 
